<svg width="30" height="42" viewBox="0 0 30 42" fill="none" xmlns="http://www.w3.org/2000/svg">
<path d="M5.17 40.11C6.77 40.11 7.59 39.22 7.59 38.13C7.59 36.92 6.65 36.45 5.34 36.14C4.17 35.86 3.49 35.61 3.49 34.9C3.49 34.27 4.11 33.71 4.96 33.71C5.68 33.71 6.36 34.04 6.93 34.59L7.41 33.98C6.78 33.4 6.02 33 5 33C3.68 33 2.7 33.86 2.7 34.96C2.7 36.15 3.57 36.58 4.95 36.9C6.15 37.18 6.8 37.47 6.8 38.2C6.8 38.82 6.26 39.4 5.2 39.4C4.24 39.4 3.53 38.99 2.95 38.41L2.46 39.02C3.15 39.7 4.04 40.11 5.17 40.11ZM11.3528 34.71C10.6228 34.71 9.95281 35.11 9.65281 35.66V33.01H8.90281V40H9.65281V36.71C9.65281 35.99 10.3828 35.38 11.2528 35.38C12.0128 35.38 12.5428 35.97 12.5428 36.81V40H13.2928V36.71C13.2928 35.54 12.4928 34.71 11.3528 34.71ZM17.2108 40.12C18.6608 40.12 19.8808 38.88 19.8808 37.41C19.8808 35.94 18.6608 34.71 17.2108 34.71C15.7608 34.71 14.5308 35.94 14.5308 37.41C14.5308 38.88 15.7608 40.12 17.2108 40.12ZM17.2108 39.45C16.1808 39.45 15.3208 38.52 15.3208 37.41C15.3208 36.31 16.1808 35.38 17.2108 35.38C18.2308 35.38 19.0908 36.31 19.0908 37.41C19.0908 38.52 18.2308 39.45 17.2108 39.45ZM23.8194 34.71C22.9894 34.71 22.3294 35.12 21.9394 35.8V34.83H21.1894V41.72H21.9394V39.03C22.3294 39.71 22.9894 40.12 23.8194 40.12C25.1794 40.12 26.1994 39 26.1994 37.41C26.1994 35.83 25.1794 34.71 23.8194 34.71ZM23.6794 39.45C22.6594 39.45 21.9394 38.6 21.9394 37.41C21.9394 36.22 22.6594 35.38 23.6794 35.38C24.6894 35.38 25.4094 36.22 25.4094 37.41C25.4094 38.6 24.6894 39.45 23.6794 39.45Z" fill="#EF3651"/>
<path fill-rule="evenodd" clip-rule="evenodd" d="M10.2 22.2C8.88001 22.2 7.81201 23.28 7.81201 24.6C7.81201 25.92 8.88001 27 10.2 27C11.52 27 12.6 25.92 12.6 24.6C12.6 23.28 11.52 22.2 10.2 22.2ZM3 3V5.4H5.4L9.72 14.508L8.1 17.448C7.908 17.784 7.8 18.18 7.8 18.6C7.8 19.92 8.88 21 10.2 21H24.6V18.6H10.704C10.536 18.6 10.404 18.468 10.404 18.3L10.44 18.156L11.52 16.2H20.46C21.36 16.2 22.152 15.708 22.56 14.964L26.856 7.176C27.0574 6.80346 27.0482 6.35248 26.8318 5.98847C26.6153 5.62445 26.2235 5.40098 25.8 5.4H8.052L6.924 3H3ZM22.2 22.2C20.88 22.2 19.812 23.28 19.812 24.6C19.812 25.92 20.88 27 22.2 27C23.52 27 24.6 25.92 24.6 24.6C24.6 23.28 23.52 22.2 22.2 22.2Z" fill="#EF3651"/>
</svg>
